# xmcd
# 
# Track frame offsets:
#     150
#     14830
#     29205
#     44782
#     62767
#     78962
#     101050
#     119260
#     136022
#     153365
#     175160
#     189785
#     203877
#     218477
#     235400
#     251142
#     267327
#     296150
# 
# Disc length: 4290
# 
# Revision: 1
# Processed by: cddbd v1.5.2PL0 Copyright (c) Steve Scherf et al.
# Submitted via: BonkEnc v1.0
# 
DISCID=0e10c012
DTITLE=JoJo - JoJo
DYEAR=2004
DGENRE=Pop
TTITLE0=Breezy
TTITLE1=Baby It's You
TTITLE2=Not That Kinda Girl
TTITLE3=The Happy Song
TTITLE4=Homeboy
TTITLE5=City Lights
TTITLE6=Leave (Get Out)
TTITLE7=Use My Shoulder
TTITLE8=Never Say Goodbye
TTITLE9=Weak
TTITLE10=Keep On Keepin' On
TTITLE11=Sunshine
TTITLE12=Yes Or No
TTITLE13=Fairy Tales
TTITLE14=Back And Forth
TTITLE15=Baby It's You - w/Bow Wow
TTITLE16=Leave (Get Out) - Hip Hop Club Mix
TTITLE17=DATA
EXTD=YEAR: 2004
EXTT0=
EXTT1=
EXTT2=
EXTT3=
EXTT4=
EXTT5=
EXTT6=
EXTT7=
EXTT8=
EXTT9=
EXTT10=
EXTT11=
EXTT12=
EXTT13=
EXTT14=
EXTT15=
EXTT16=
EXTT17=
PLAYORDER=
